<?xml version="1.0" standalone="no"?>
<!DOCTYPE svg PUBLIC "-//W3C//DTD SVG 20010904//EN"
 "http://www.w3.org/TR/2001/REC-SVG-20010904/DTD/svg10.dtd">

<svg version="1.0" xmlns="http://www.w3.org/2000/svg"
 width="640.000000pt" height="640.000000pt" viewBox="0 0 640.000000 640.000000"
 preserveAspectRatio="xMidYMid meet">
    <style>
        .st0{fill:#8211FA;}
    </style>
<g transform="translate(0.000000,640.000000) scale(0.100000,-0.100000)"
fill="#000000" stroke="none">
<path class="st0" d="M1250 5730 c-78 -14 -163 -51 -215 -94 -27 -23 -75 -58 -106 -79 -30
-21 -64 -52 -75 -70 -26 -44 -79 -196 -88 -252 -1 -11 -7 -29 -13 -40 -6 -11
-13 -125 -17 -265 -3 -135 -8 -265 -11 -290 -12 -109 -38 -301 -50 -375 -7
-44 -16 -111 -19 -149 -9 -92 -31 -181 -52 -214 -32 -48 -104 -193 -104 -208
0 -19 -40 -81 -76 -119 -16 -17 -74 -67 -129 -111 -106 -84 -172 -114 -253
-114 l-42 0 0 -150 0 -150 48 0 c78 0 139 -28 237 -105 116 -93 189 -171 205
-220 11 -32 79 -171 127 -259 13 -23 28 -113 67 -396 46 -330 47 -333 50 -605
3 -201 6 -240 25 -310 54 -194 107 -288 185 -330 20 -11 36 -23 36 -27 0 -5 7
-8 15 -8 9 0 18 -6 21 -14 9 -23 78 -64 151 -91 l68 -24 485 -2 c1262 -4 2954
-3 3215 1 267 5 295 7 349 28 33 12 74 35 90 51 17 16 58 46 90 66 76 49 100
77 126 150 12 33 30 72 40 86 11 15 30 62 44 105 23 74 25 97 30 364 3 157 10
319 16 360 5 41 14 138 20 215 6 77 17 167 25 200 8 33 17 75 20 93 7 35 31
88 50 112 7 8 27 53 45 100 18 47 41 102 51 122 31 61 136 167 288 290 18 15
127 48 157 48 l24 0 0 150 0 150 -28 0 c-65 0 -137 32 -217 97 -89 72 -225
216 -225 238 0 8 -3 15 -7 15 -5 0 -16 27 -26 59 -11 33 -36 94 -58 135 -65
126 -82 208 -110 526 -6 69 -15 159 -19 200 -5 41 -9 179 -9 306 -1 213 -3
237 -25 310 -13 43 -37 104 -53 134 -17 31 -34 71 -38 89 -8 39 -66 101 -115
124 -19 10 -60 37 -90 62 -32 26 -81 54 -120 67 l-65 23 -1950 1 c-1072 1
-1970 -2 -1995 -6z m2200 -1219 c36 -5 95 -12 131 -16 109 -9 160 -27 225 -80
34 -26 79 -58 100 -70 41 -23 95 -85 157 -181 20 -33 46 -70 57 -84 14 -17 24
-57 34 -130 12 -90 13 -120 1 -209 -10 -76 -20 -112 -35 -130 -11 -14 -41 -61
-67 -104 -53 -89 -96 -130 -167 -162 -63 -28 -90 -56 -81 -84 3 -12 38 -42 77
-67 38 -25 77 -53 87 -63 9 -9 37 -30 62 -46 101 -67 114 -85 233 -317 13 -27
32 -90 41 -142 14 -77 15 -108 6 -181 -9 -77 -15 -94 -48 -139 -21 -28 -51
-78 -68 -109 -35 -69 -62 -97 -162 -175 -127 -98 -147 -110 -188 -116 -41 -7
-169 -36 -265 -61 -78 -21 -217 -26 -700 -30 -234 -1 -453 -6 -487 -10 -53 -7
-66 -5 -95 13 -40 25 -55 48 -68 106 -6 28 -10 497 -10 1271 l-1 1228 23 34
c47 71 36 70 620 67 288 -2 552 -8 588 -13z"/>
<path class="st0" d="M2768 4163 c-71 -52 -68 -37 -67 -360 2 -413 -14 -395 344 -387 116
3 237 9 270 15 78 14 279 111 314 152 28 33 35 51 56 142 22 93 18 151 -15
245 -23 68 -38 93 -71 123 -23 20 -54 40 -68 42 -14 3 -46 12 -71 19 -75 24
-105 26 -387 30 l-273 3 -32 -24z"/>
<path class="st0" d="M2805 3048 c-33 -8 -83 -45 -96 -70 -7 -13 -11 -131 -11 -342 -1
-359 -3 -350 70 -399 l37 -25 299 4 c423 6 503 23 612 126 87 82 106 122 113
236 10 142 0 204 -40 260 -63 88 -181 179 -242 186 -23 3 -80 10 -127 16 -97
12 -578 18 -615 8z"/>
</g>
</svg>
