<svg version="1.0" xmlns="http://www.w3.org/2000/svg" viewBox="0 0 92.0000 92.000000"
     preserveAspectRatio="xMidYMid meet">
    <style>
        .st { fill: #F54D27; }
    </style>
    <g transform="translate(0.000000,92.000000) scale(0.100000,-0.100000)"
       fill="#000000" stroke="none">
        112 4 132 -31 17 -95 12 -113 -8z"/>
        <path class="st" d="M390 865 l-44 -45 47 -48 c29 -30 56 -48 72 -48 35 -2 65 -31 65 -63
0 -36 95 -131 131 -131 57 0 85 -85 40 -122 -34 -27 -75 -23 -100 8 -12 15
-21 36 -21 48 0 13 -19 41 -45 66 l-45 44 0 -120 c0 -108 2 -123 20 -139 43
-39 11 -115 -50 -115 -61 0 -93 76 -50 115 18 16 20 31 20 145 0 114 -2 129
-20 145 -11 10 -20 30 -20 44 0 19 -15 41 -47 73 l-48 47 -142 -137 c-122
-117 -143 -142 -143 -168 0 -25 30 -60 213 -242 158 -158 219 -212 237 -212
18 0 79 54 237 212 183 182 213 217 213 242 0 26 -30 60 -208 238 -240 240
-237 239 -312 163z"/>
    </g>
</svg>