<?xml version="1.0" encoding="UTF-8" standalone="no"?>
<!DOCTYPE svg PUBLIC "-//W3C//DTD SVG 1.1//EN" "http://www.w3.org/Graphics/SVG/1.1/DTD/svg11.dtd">
<svg xmlns="http://www.w3.org/2000/svg" version="1.1" viewBox="0.00 0.00 1448.00 544.00">
<path fill="#000000" d="
  M 1011.12 85.76
  A 0.80 0.79 -46.7 0 0 1009.97 85.80
  Q 996.44 100.82 984.65 116.22
  C 976.37 127.04 967.81 137.19 959.47 147.76
  Q 924.02 192.66 887.84 237.28
  C 886.05 239.49 884.38 242.00 882.55 244.29
  Q 868.68 261.72 854.29 279.47
  Q 848.25 286.91 841.91 295.17
  Q 830.81 309.62 818.44 324.37
  C 807.80 337.07 797.55 350.62 787.26 363.04
  Q 781.67 369.78 777.61 377.65
  Q 776.02 380.72 775.76 383.77
  Q 775.18 390.65 775.10 396.49
  Q 774.61 432.26 774.60 467.14
  Q 774.60 478.74 773.96 499.25
  C 773.83 503.60 773.91 508.74 771.66 512.33
  C 768.37 517.55 764.17 519.53 757.96 518.30
  C 753.53 517.41 750.05 512.62 747.06 509.60
  A 1.71 1.71 0.0 0 1 746.57 508.40
  Q 747.02 446.71 747.20 376.86
  Q 747.21 374.39 748.23 372.15
  Q 753.58 360.46 760.90 350.20
  Q 766.39 342.51 770.85 337.04
  Q 797.97 303.76 823.55 271.34
  Q 828.13 265.54 832.34 260.31
  Q 865.40 219.25 897.45 179.01
  C 906.76 167.31 915.86 156.28 925.52 144.01
  Q 943.67 120.94 962.70 97.21
  Q 967.38 91.38 972.85 83.33
  A 1.55 1.55 0.0 0 0 973.06 82.03
  Q 972.66 80.64 971.72 81.13
  Q 954.53 89.97 937.56 100.07
  Q 913.01 114.68 890.88 126.58
  Q 884.25 130.14 877.17 134.63
  Q 870.10 139.10 863.54 142.79
  Q 837.60 157.37 811.82 172.26
  C 810.67 172.92 809.46 173.25 808.35 173.93
  Q 801.70 178.03 795.93 181.35
  Q 777.63 191.87 762.80 200.58
  Q 753.67 205.94 747.14 209.43
  Q 738.81 213.88 729.13 219.43
  Q 727.85 220.16 711.88 229.64
  Q 696.96 238.50 682.06 246.90
  Q 669.50 253.98 664.03 256.74
  C 660.34 258.60 657.21 261.02 653.66 263.05
  Q 626.79 278.37 599.82 293.96
  Q 597.06 295.55 594.28 297.93
  A 1.82 1.81 -38.7 0 0 594.00 300.40
  Q 595.41 302.30 597.52 303.04
  Q 623.68 312.15 649.98 321.13
  Q 659.34 324.32 669.54 328.08
  Q 678.29 331.31 688.07 334.45
  Q 700.30 338.37 713.00 343.90
  Q 716.42 345.39 715.42 348.99
  Q 712.70 358.73 709.84 367.22
  Q 708.99 369.71 707.02 371.37
  A 1.13 1.12 29.1 0 1 706.12 371.62
  Q 704.20 371.35 702.34 370.85
  Q 692.88 368.30 683.68 364.34
  C 681.96 363.60 679.94 363.53 678.07 362.88
  Q 663.99 357.95 651.09 353.14
  Q 644.97 350.86 638.41 348.77
  Q 631.26 346.49 625.69 344.53
  Q 596.50 334.28 567.79 324.56
  Q 565.24 323.70 563.18 322.35
  Q 561.53 321.26 559.62 321.18
  C 555.62 320.99 551.74 316.34 549.70 312.93
  Q 544.02 303.43 549.37 294.29
  C 556.13 282.72 568.14 277.98 578.97 271.45
  Q 584.61 268.05 590.30 264.92
  Q 625.55 245.46 660.59 226.31
  C 673.25 219.38 688.63 210.32 702.70 202.58
  Q 745.83 178.84 788.99 155.09
  Q 795.71 151.39 802.52 147.32
  Q 812.58 141.32 815.99 139.47
  Q 868.41 111.02 920.26 81.55
  Q 923.49 79.71 926.92 78.24
  C 929.95 76.95 932.47 74.63 935.44 73.01
  Q 973.50 52.29 1009.83 32.21
  Q 1016.56 28.50 1024.80 23.32
  Q 1027.06 21.90 1031.06 20.67
  Q 1033.88 19.81 1036.20 20.48
  Q 1045.59 23.22 1048.10 32.07
  Q 1050.12 39.16 1048.41 47.49
  Q 1042.69 75.32 1040.34 90.02
  Q 1037.14 110.09 1035.47 118.75
  Q 1027.48 160.28 1021.80 192.51
  Q 1015.20 230.02 1010.11 255.99
  Q 1007.23 270.64 1005.32 282.13
  C 1003.35 293.97 1001.04 305.40 999.05 316.94
  C 996.88 329.59 994.48 341.94 991.98 354.42
  C 989.73 365.69 988.19 377.53 986.24 389.01
  C 985.45 393.66 983.63 398.66 983.04 402.77
  Q 980.92 417.36 978.23 431.26
  Q 976.65 439.42 974.36 446.85
  C 971.35 456.60 962.76 465.10 952.08 465.21
  Q 945.78 465.27 940.59 465.00
  C 938.44 464.89 937.61 463.16 935.64 462.69
  C 932.37 461.92 928.99 461.22 925.85 460.12
  Q 904.03 452.49 884.45 446.09
  Q 867.62 440.59 851.68 435.08
  Q 842.24 431.81 832.75 428.69
  Q 818.92 424.14 803.76 418.50
  Q 800.65 417.35 797.36 415.87
  Q 794.39 414.53 795.29 411.50
  Q 798.32 401.32 800.93 393.17
  Q 801.54 391.27 802.84 389.38
  Q 803.83 387.92 805.74 388.26
  Q 808.21 388.69 810.25 389.31
  C 817.54 391.50 824.59 394.38 831.81 396.60
  Q 839.37 398.92 846.19 401.63
  C 848.90 402.70 851.44 402.79 854.12 403.71
  Q 878.15 412.00 906.72 421.25
  Q 921.55 426.04 936.59 431.18
  Q 938.64 431.89 941.15 432.38
  C 944.27 432.98 949.00 434.58 950.13 430.17
  C 950.92 427.12 951.10 423.86 951.69 420.68
  Q 961.32 368.25 970.98 315.58
  C 975.30 292.03 979.29 268.49 983.76 244.75
  Q 985.59 235.07 987.35 225.09
  Q 993.42 190.87 1000.44 153.74
  Q 1005.60 126.46 1010.84 96.99
  Q 1011.58 92.81 1011.94 88.24
  Q 1012.06 86.70 1011.12 85.76
  Z"
/>
<path fill="#000000" d="
  M 178.73 367.74
  L 178.72 392.18
  A 0.98 0.98 0.0 0 1 177.74 393.16
  L 44.20 392.83
  A 0.98 0.98 0.0 0 1 43.22 391.85
  L 42.75 151.78
  A 0.98 0.98 0.0 0 1 43.73 150.80
  L 72.30 150.76
  A 0.98 0.98 0.0 0 1 73.28 151.74
  L 73.30 365.78
  A 0.98 0.98 0.0 0 0 74.28 366.76
  L 177.75 366.76
  A 0.98 0.98 0.0 0 1 178.73 367.74
  Z"
/>
<path fill="#000000" d="
  M 1289.33 369.51
  C 1284.12 391.03 1272.04 409.26 1253.54 420.08
  Q 1246.28 424.33 1236.96 427.72
  Q 1227.47 431.17 1216.50 431.25
  Q 1201.59 431.36 1188.70 431.15
  C 1179.12 430.99 1169.94 427.54 1160.66 422.94
  Q 1134.43 409.93 1123.62 381.23
  Q 1117.62 365.28 1115.89 348.08
  Q 1115.13 340.48 1115.03 329.86
  Q 1114.27 248.66 1115.03 185.92
  Q 1115.07 182.78 1115.32 179.74
  A 2.17 2.17 0.0 0 1 1117.34 177.76
  Q 1131.55 176.83 1145.53 177.32
  A 0.89 0.89 0.0 0 1 1146.39 178.20
  Q 1146.97 234.76 1147.09 290.50
  Q 1147.14 312.62 1147.93 336.00
  Q 1148.39 349.50 1150.37 358.78
  Q 1152.65 369.41 1159.86 380.97
  Q 1165.97 390.77 1176.29 396.95
  Q 1183.30 401.14 1194.79 402.67
  C 1208.04 404.42 1223.07 402.93 1234.90 396.20
  C 1252.67 386.07 1260.91 364.17 1261.96 344.75
  C 1262.60 333.01 1263.04 321.65 1263.05 310.06
  Q 1263.17 242.93 1263.92 179.06
  A 1.06 1.05 -6.8 0 1 1264.72 178.05
  Q 1266.51 177.61 1268.52 177.57
  Q 1280.82 177.33 1293.65 178.10
  Q 1293.93 178.12 1293.93 178.40
  Q 1294.32 234.50 1294.47 291.05
  Q 1294.52 312.65 1293.84 335.33
  Q 1293.31 353.03 1289.33 369.51
  Z"
/>
<path fill="#000000" d="
  M 1374.74 427.10
  L 1374.74 178.09
  A 0.89 0.89 0.0 0 1 1375.65 177.20
  L 1405.08 177.94
  A 0.89 0.89 0.0 0 1 1405.94 178.83
  L 1406.75 427.11
  A 0.89 0.89 0.0 0 1 1405.86 428.00
  L 1375.63 427.99
  A 0.89 0.89 0.0 0 1 1374.74 427.10
  Z"
/>
<path fill="#000000" d="
  M 318.52 372.62
  Q 317.30 373.24 316.16 374.06
  C 307.66 380.14 298.69 386.38 289.13 390.33
  C 262.42 401.36 230.50 399.63 214.26 372.60
  C 206.79 360.16 206.34 340.33 211.49 326.91
  C 219.78 305.29 242.23 295.36 263.24 289.83
  Q 284.45 284.25 291.02 283.26
  Q 303.52 281.37 316.02 279.38
  Q 317.47 279.15 317.48 277.54
  Q 317.53 269.90 315.80 261.90
  C 311.98 244.35 299.83 233.78 280.99 234.55
  Q 257.33 235.51 235.66 247.94
  Q 231.73 250.19 227.87 252.62
  A 0.57 0.57 0.0 0 1 227.08 252.44
  Q 222.38 244.75 217.58 236.36
  Q 215.33 232.41 219.06 230.31
  Q 232.11 222.95 244.15 217.85
  Q 257.65 212.14 273.96 210.27
  Q 290.22 208.40 302.43 210.88
  C 318.53 214.16 331.59 223.25 338.92 238.06
  Q 343.73 247.80 345.74 257.49
  C 346.81 262.69 346.96 269.86 347.00 275.68
  Q 347.45 334.49 347.25 392.25
  A 0.54 0.54 0.0 0 1 346.71 392.79
  L 324.26 392.76
  A 1.17 1.17 0.0 0 1 323.10 391.68
  Q 322.38 382.36 320.75 373.72
  Q 320.37 371.68 318.52 372.62
  Z
  M 238.38 336.68
  C 235.41 349.02 238.71 363.63 251.02 369.38
  C 262.29 374.65 276.41 373.20 288.12 368.34
  C 299.17 363.75 308.81 356.82 318.15 349.42
  Q 318.57 349.09 318.58 348.55
  Q 319.09 323.79 318.08 300.70
  A 1.05 1.05 0.0 0 0 316.99 299.70
  Q 313.21 299.83 309.11 300.44
  Q 287.91 303.59 271.80 308.68
  C 257.65 313.15 242.12 321.17 238.38 336.68
  Z"
/>
<path fill="#000000" d="
  M 463.96 360.83
  Q 464.87 363.09 465.72 360.81
  Q 469.48 350.76 472.75 340.24
  Q 492.27 277.22 512.69 214.61
  A 0.71 0.71 0.0 0 1 513.32 214.12
  Q 527.71 213.21 538.12 213.58
  Q 539.20 213.62 540.28 213.95
  A 1.34 1.34 0.0 0 1 541.18 215.59
  Q 540.72 217.24 540.14 218.96
  Q 519.46 280.23 495.53 347.52
  Q 492.45 356.15 489.05 366.44
  Q 483.34 383.69 475.61 404.35
  Q 471.27 415.92 466.03 427.41
  C 461.18 438.03 453.60 446.87 445.06 454.94
  C 438.18 461.44 430.13 466.51 420.83 468.02
  Q 411.32 469.56 399.68 468.89
  Q 394.38 468.59 390.38 466.85
  C 387.21 465.48 387.95 463.05 388.46 460.49
  Q 390.21 451.78 392.20 444.72
  A 2.19 2.19 0.0 0 1 394.81 443.18
  Q 397.84 443.89 401.02 444.49
  C 406.89 445.59 413.32 444.86 418.73 442.77
  C 431.45 437.86 439.97 424.95 444.59 412.79
  Q 448.22 403.25 450.61 393.17
  A 2.08 2.07 -49.4 0 0 450.52 391.96
  L 379.34 214.22
  A 0.73 0.72 -10.7 0 1 380.02 213.23
  L 409.49 213.20
  A 1.38 1.38 0.0 0 1 410.80 214.15
  Q 412.64 219.86 414.41 224.65
  Q 438.97 291.40 457.83 345.02
  C 459.69 350.32 461.87 355.62 463.96 360.83
  Z"
/>
</svg>
