<?xml version="1.0" encoding="UTF-8" standalone="no"?>
<!DOCTYPE svg PUBLIC "-//W3C//DTD SVG 1.1//EN" "http://www.w3.org/Graphics/SVG/1.1/DTD/svg11.dtd">
<svg xmlns="http://www.w3.org/2000/svg" version="1.1" viewBox="0.00 0.00 266.00 289.00">
<path fill="#5ec503" d="
  M 167.79 79.31
  Q 166.11 77.83 166.13 80.07
  Q 166.19 88.31 164.88 95.49
  C 163.10 105.23 157.06 114.02 149.73 120.42
  C 140.08 128.85 130.60 133.54 118.41 139.35
  C 105.29 145.61 91.89 154.64 82.28 165.72
  Q 75.48 173.55 73.41 182.69
  C 73.13 183.91 73.52 185.07 73.98 186.19
  Q 76.58 192.44 79.72 199.27
  Q 80.79 201.60 81.56 204.28
  A 0.61 0.60 -7.9 0 1 80.97 205.05
  L 32.51 205.15
  A 1.65 1.64 89.8 0 1 30.86 203.50
  Q 30.95 131.74 30.99 56.34
  Q 31.00 45.07 32.45 40.46
  C 37.17 25.45 50.27 16.47 66.04 16.52
  Q 141.39 16.80 220.82 16.80
  Q 221.95 16.80 222.32 17.87
  Q 222.77 19.17 222.77 20.67
  Q 222.74 91.03 223.03 167.74
  Q 223.12 190.10 206.42 200.08
  C 198.87 204.60 190.59 205.89 182.39 204.87
  Q 181.22 204.73 182.24 204.12
  Q 187.01 201.27 191.18 198.50
  Q 215.03 182.68 213.97 156.03
  C 213.47 143.24 208.67 130.40 202.05 118.92
  Q 201.39 117.78 200.51 116.88
  Q 199.06 115.39 199.11 117.47
  C 199.28 124.87 199.53 131.71 197.37 138.84
  C 194.46 148.41 187.19 156.96 179.40 162.89
  C 171.62 168.80 163.54 172.97 154.70 177.18
  Q 144.13 182.22 134.00 188.89
  C 127.14 193.42 121.33 198.83 115.67 204.67
  A 1.40 1.40 0.0 0 1 114.68 205.08
  L 98.49 205.03
  Q 96.62 205.03 97.85 203.62
  C 108.23 191.76 121.38 182.26 135.07 173.62
  Q 147.26 165.93 157.49 159.52
  Q 174.97 148.55 179.42 129.94
  Q 181.57 120.95 179.87 110.41
  Q 177.59 96.27 170.38 83.29
  C 169.63 81.94 168.97 80.35 167.79 79.31
  Z
  M 148.15 85.06
  C 149.08 81.60 149.12 78.01 149.57 74.39
  Q 149.83 72.25 149.62 70.11
  Q 148.33 56.83 143.39 45.66
  Q 140.96 40.16 137.52 33.88
  Q 137.17 33.23 136.63 32.74
  Q 135.20 31.44 135.17 33.37
  Q 135.09 37.99 134.77 42.70
  C 133.98 54.27 129.74 63.61 121.42 71.86
  Q 111.47 81.73 98.90 87.79
  Q 89.59 92.28 80.61 96.98
  Q 68.80 103.18 57.81 113.06
  C 51.36 118.86 45.55 126.21 42.86 134.71
  Q 41.89 137.76 43.02 140.37
  Q 48.81 153.75 55.74 169.23
  Q 57.21 172.51 58.90 175.73
  Q 59.43 176.74 59.53 175.61
  C 60.58 163.83 67.99 155.11 76.80 147.67
  C 90.71 135.93 106.10 126.05 121.87 116.57
  C 134.91 108.74 144.13 100.01 148.15 85.06
  Z"
/>
<path fill="#000000" d="
  M 254.10 227.80
  A 6.38 6.38 0.0 0 1 247.72 234.18
  A 6.38 6.38 0.0 0 1 241.34 227.80
  A 6.38 6.38 0.0 0 1 247.72 221.42
  A 6.38 6.38 0.0 0 1 254.10 227.80
  Z
  M 252.94 227.82
  A 5.23 5.23 0.0 0 0 247.71 222.59
  A 5.23 5.23 0.0 0 0 242.48 227.82
  A 5.23 5.23 0.0 0 0 247.71 233.05
  A 5.23 5.23 0.0 0 0 252.94 227.82
  Z"
/>
<path fill="#000000" d="
  M 246.73 225.79
  Q 247.06 228.41 246.62 230.97
  A 0.25 0.24 -88.2 0 1 246.41 231.18
  L 246.01 231.22
  Q 245.76 231.25 245.76 231.00
  L 245.83 224.85
  Q 245.84 224.02 246.67 224.10
  Q 248.27 224.25 249.78 225.04
  Q 250.15 225.23 250.05 225.63
  L 249.54 227.60
  Q 249.41 228.14 249.63 228.65
  Q 250.15 229.82 249.92 231.00
  Q 249.73 231.95 249.35 231.06
  L 248.15 228.31
  Q 247.91 227.75 248.38 227.36
  Q 248.99 226.85 249.05 226.02
  Q 249.11 225.06 248.15 225.02
  L 247.47 224.99
  A 0.71 0.71 0.0 0 0 246.73 225.79
  Z"
/>
<path fill="#000000" d="
  M 39.92 242.97
  L 39.96 271.25
  A 0.79 0.79 0.0 0 1 39.16 272.05
  L 29.26 271.99
  A 0.79 0.79 0.0 0 1 28.47 271.20
  L 28.47 243.03
  A 0.79 0.79 0.0 0 0 27.68 242.24
  L 20.77 242.26
  A 0.79 0.79 0.0 0 1 19.98 241.47
  L 19.95 235.63
  A 0.79 0.79 0.0 0 1 20.74 234.84
  L 47.84 234.81
  A 0.79 0.79 0.0 0 1 48.63 235.60
  L 48.64 241.52
  A 0.79 0.79 0.0 0 1 47.84 242.31
  L 40.72 242.18
  A 0.79 0.79 0.0 0 0 39.92 242.97
  Z"
/>
<path fill="#000000" d="
  M 62.34 244.96
  Q 65.37 242.17 69.94 242.62
  Q 76.17 243.25 76.21 249.32
  Q 76.27 260.61 76.18 271.53
  A 0.48 0.48 0.0 0 1 75.70 272.01
  L 66.00 271.99
  A 0.74 0.73 -90.0 0 1 65.27 271.25
  L 65.29 251.18
  Q 65.30 249.56 63.68 249.64
  L 63.20 249.66
  Q 61.87 249.72 61.87 251.05
  L 61.91 271.54
  Q 61.91 272.00 61.46 272.00
  L 51.49 272.00
  A 0.51 0.51 0.0 0 1 50.98 271.49
  L 50.97 235.55
  A 0.66 0.66 0.0 0 1 51.62 234.89
  L 61.00 234.79
  Q 61.72 234.79 61.73 235.50
  L 61.85 244.75
  A 0.29 0.29 0.0 0 0 62.34 244.96
  Z"
/>
<rect fill="#000000" x="-5.53" y="-3.32" transform="translate(86.03,238.15) rotate(0.9)" width="11.06" height="6.64" rx="0.63"/>
<path fill="#000000" d="
  M 137.40 259.22
  Q 135.91 254.63 136.02 259.46
  L 136.29 271.23
  Q 136.31 272.01 135.52 272.01
  L 125.83 271.99
  A 0.66 0.66 0.0 0 1 125.17 271.33
  L 125.18 235.74
  A 0.85 0.84 89.7 0 1 126.01 234.89
  L 135.25 234.79
  A 0.91 0.90 88.7 0 1 136.17 235.68
  Q 136.35 243.75 135.97 251.77
  Q 135.89 253.35 136.14 254.31
  Q 136.51 255.69 136.95 254.34
  L 140.45 243.79
  A 1.16 1.14 -80.2 0 1 141.55 243.00
  L 151.19 243.01
  Q 152.46 243.01 151.99 244.19
  L 147.40 255.65
  Q 147.19 256.17 147.39 256.69
  L 153.03 271.38
  A 0.45 0.44 80.1 0 1 152.61 271.99
  L 142.29 271.99
  A 1.05 1.04 80.7 0 1 141.30 271.27
  L 137.40 259.22
  Z"
/>
<path fill="#000000" d="
  M 166.40 258.18
  L 166.25 271.25
  Q 166.24 272.00 165.50 272.00
  L 155.49 272.00
  A 0.51 0.51 0.0 0 1 154.98 271.49
  L 154.93 235.71
  A 0.83 0.82 -89.7 0 1 155.76 234.88
  Q 163.54 234.91 171.24 234.95
  C 174.94 234.97 180.08 235.96 181.15 240.23
  C 182.49 245.57 183.12 255.26 176.43 256.91
  Q 171.83 258.05 167.16 257.51
  A 0.68 0.68 0.0 0 0 166.40 258.18
  Z
  M 166.16 242.09
  L 166.14 250.29
  A 0.81 0.81 0.0 0 0 166.95 251.10
  L 167.15 251.10
  A 2.89 2.53 0.1 0 0 170.05 248.57
  L 170.05 243.81
  A 2.89 2.53 0.1 0 0 167.17 241.28
  L 166.97 241.28
  A 0.81 0.81 0.0 0 0 166.16 242.09
  Z"
/>
<path fill="#000000" d="
  M 200.01 248.49
  L 199.98 235.62
  A 0.67 0.67 0.0 0 1 200.65 234.95
  L 210.61 234.94
  A 0.67 0.67 0.0 0 1 211.28 235.61
  L 211.26 271.34
  A 0.67 0.67 0.0 0 1 210.59 272.01
  L 200.66 272.01
  A 0.67 0.67 0.0 0 1 199.99 271.34
  L 199.99 257.44
  A 0.67 0.67 0.0 0 0 199.33 256.77
  L 196.70 256.74
  A 0.67 0.67 0.0 0 0 196.02 257.41
  L 196.02 271.36
  A 0.67 0.67 0.0 0 1 195.35 272.03
  L 185.42 271.97
  A 0.67 0.67 0.0 0 1 184.75 271.30
  L 184.76 235.55
  A 0.67 0.67 0.0 0 1 185.43 234.88
  L 195.34 234.84
  A 0.67 0.67 0.0 0 1 196.01 235.51
  L 196.02 248.55
  A 0.67 0.67 0.0 0 0 196.71 249.22
  L 199.36 249.16
  A 0.67 0.67 0.0 0 0 200.01 248.49
  Z"
/>
<path fill="#000000" d="
  M 227.00 258.53
  L 227.01 271.50
  Q 227.01 272.00 226.50 272.00
  L 216.43 272.00
  A 0.87 0.87 0.0 0 1 215.56 271.13
  L 215.54 236.02
  A 1.11 1.11 0.0 0 1 216.61 234.91
  Q 225.54 234.65 234.48 235.11
  C 238.41 235.31 241.58 237.45 242.27 241.73
  Q 243.32 248.18 241.64 253.02
  C 239.93 257.93 232.29 257.98 228.07 257.56
  Q 227.00 257.45 227.00 258.53
  Z
  M 226.95 242.07
  L 227.03 250.31
  A 0.81 0.81 0.0 0 0 227.84 251.11
  L 228.00 251.11
  A 3.01 3.00 -0.5 0 0 230.99 248.08
  L 230.95 244.22
  A 3.01 3.00 -0.5 0 0 227.92 241.25
  L 227.76 241.25
  A 0.81 0.81 0.0 0 0 226.95 242.07
  Z"
/>
<path fill="#000000" d="
  M 106.93 244.03
  Q 106.77 245.31 107.79 244.55
  Q 112.47 241.07 118.14 243.43
  C 120.23 244.30 121.00 246.83 121.00 248.89
  Q 121.00 260.30 121.01 271.47
  Q 121.01 272.00 120.47 272.00
  L 110.51 272.00
  A 0.49 0.49 0.0 0 1 110.02 271.51
  L 110.03 250.90
  Q 110.03 249.26 108.40 249.22
  L 108.06 249.21
  A 1.23 1.23 0.0 0 0 106.79 250.44
  L 106.73 271.51
  A 0.49 0.49 0.0 0 1 106.24 272.00
  L 96.49 272.00
  A 0.76 0.76 0.0 0 1 95.73 271.24
  L 95.76 243.75
  Q 95.76 243.01 96.50 243.01
  L 106.01 243.00
  A 0.87 0.83 -25.8 0 1 106.51 243.16
  Q 106.99 243.52 106.93 244.03
  Z"
/>
<rect fill="#000000" x="80.52" y="243.01" width="11.00" height="28.98" rx="0.44"/>
</svg>
